<svg width="14" height="15" viewBox="0 0 14 15" fill="none" xmlns="http://www.w3.org/2000/svg">
<g clip-path="url(#clip0_8286_155)">
<path d="M6.26677 6.00001H7.4001V4.30001H9.1001V3.16667H7.4001V1.46667H6.26677V3.16667H4.56677V4.30001H6.26677V6.00001ZM4.0001 11.1C3.37676 11.1 2.87243 11.61 2.87243 12.2333C2.87243 12.8567 3.37676 13.3667 4.0001 13.3667C4.62343 13.3667 5.13343 12.8567 5.13343 12.2333C5.13343 11.61 4.62343 11.1 4.0001 11.1ZM9.66677 11.1C9.04343 11.1 8.5391 11.61 8.5391 12.2333C8.5391 12.8567 9.04343 13.3667 9.66677 13.3667C10.2901 13.3667 10.8001 12.8567 10.8001 12.2333C10.8001 11.61 10.2901 11.1 9.66677 11.1ZM4.09643 9.25834L4.11343 9.19034L4.62343 8.26668H8.8451C9.2701 8.26668 9.6441 8.03434 9.83677 7.68301L12.0241 3.71068L11.0381 3.16667H11.0324L10.4091 4.30001L8.8451 7.13334H4.8671L4.79343 6.98034L3.5241 4.30001L2.98576 3.16667L2.4531 2.03334H0.600098V3.16667H1.73343L3.77343 7.46768L3.00843 8.85601C2.91776 9.01468 2.86676 9.20168 2.86676 9.40001C2.86676 10.0233 3.37676 10.5333 4.0001 10.5333H10.8001V9.40001H4.2381C4.16443 9.40001 4.09643 9.33768 4.09643 9.25834Z" fill="white"/>
</g>
<defs>
<clipPath id="clip0_8286_155">
<rect width="13.6" height="13.6" fill="white" transform="translate(0.0334473 0.900024)"/>
</clipPath>
</defs>
</svg>
